<mxfile host="Electron" modified="2021-09-29T10:02:49.044Z" agent="5.0 (Windows NT 10.0; Win64; x64) AppleWebKit/537.36 (KHTML, like Gecko) draw.io/15.3.8 Chrome/94.0.4606.51 Electron/15.0.0 Safari/537.36" etag="b2SUUMXRlvzR_v0Yb1ev" compressed="false" version="15.3.8" type="device">
  <diagram id="WE0fhdC2GFonLpYds7SX" name="第 1 页">
    <mxGraphModel dx="1024" dy="613" grid="1" gridSize="10" guides="1" tooltips="1" connect="1" arrows="1" fold="1" page="1" pageScale="1" pageWidth="1200" pageHeight="1920" math="0" shadow="0">
      <root>
        <mxCell id="0" />
        <mxCell id="1" parent="0" />
        <mxCell id="gbWqnIeZow8ziQOpzbil-7" value="" style="rounded=0;whiteSpace=wrap;html=1;container=1;recursiveResize=0;" parent="1" vertex="1">
          <mxGeometry x="100" y="50" width="300" height="140" as="geometry" />
        </mxCell>
        <mxCell id="gbWqnIeZow8ziQOpzbil-4" value="支付宝" style="rounded=1;whiteSpace=wrap;html=1;" parent="gbWqnIeZow8ziQOpzbil-7" vertex="1">
          <mxGeometry x="40" y="29.999999999999996" width="100" height="37.5" as="geometry" />
        </mxCell>
        <mxCell id="gbWqnIeZow8ziQOpzbil-5" value="微信" style="rounded=1;whiteSpace=wrap;html=1;" parent="gbWqnIeZow8ziQOpzbil-7" vertex="1">
          <mxGeometry x="160" y="29.999999999999996" width="100" height="37.5" as="geometry" />
        </mxCell>
        <mxCell id="gbWqnIeZow8ziQOpzbil-6" value="美团" style="rounded=1;whiteSpace=wrap;html=1;" parent="gbWqnIeZow8ziQOpzbil-7" vertex="1">
          <mxGeometry x="40" y="82.5" width="100" height="37.5" as="geometry" />
        </mxCell>
        <mxCell id="gbWqnIeZow8ziQOpzbil-8" value="传统" style="rounded=1;whiteSpace=wrap;html=1;fillColor=#e1d5e7;strokeColor=#9673a6;" parent="gbWqnIeZow8ziQOpzbil-7" vertex="1">
          <mxGeometry x="160" y="81.25" width="100" height="40" as="geometry" />
        </mxCell>
        <mxCell id="gbWqnIeZow8ziQOpzbil-1" value="农业" style="rounded=1;whiteSpace=wrap;html=1;" parent="1" vertex="1">
          <mxGeometry x="100" y="230" width="150" height="50" as="geometry" />
        </mxCell>
        <mxCell id="gbWqnIeZow8ziQOpzbil-2" value="制造业" style="rounded=1;whiteSpace=wrap;html=1;" parent="1" vertex="1">
          <mxGeometry x="100" y="350" width="150" height="50" as="geometry" />
        </mxCell>
        <mxCell id="gbWqnIeZow8ziQOpzbil-3" value="运输物流" style="rounded=1;whiteSpace=wrap;html=1;" parent="1" vertex="1">
          <mxGeometry x="100" y="410" width="150" height="50" as="geometry" />
        </mxCell>
        <mxCell id="gbWqnIeZow8ziQOpzbil-9" value="冷链物流" style="rounded=1;whiteSpace=wrap;html=1;" parent="1" vertex="1">
          <mxGeometry x="260" y="410" width="150" height="50" as="geometry" />
        </mxCell>
        <mxCell id="gbWqnIeZow8ziQOpzbil-10" value="能源" style="rounded=1;whiteSpace=wrap;html=1;" parent="1" vertex="1">
          <mxGeometry x="100" y="290" width="150" height="50" as="geometry" />
        </mxCell>
      </root>
    </mxGraphModel>
  </diagram>
</mxfile>
